#N canvas 1 82 861 585 10;
#X obj 220 466 outlet;
#X obj 557 156 select 0;
#X obj 271 341 unpack 0 0;
#X obj 287 426 int;
#X obj 220 343 inlet;
#X msg 608 293 0 1;
#X obj 608 187 select i int f float;
#X msg 675 291 1 0;
#X obj 220 404 spigot 0;
#X obj 285 406 spigot 1;
#X obj 271 181 int;
#X obj 271 208 ==;
#X obj 271 159 t f f;
#X obj 271 235 select 0;
#X msg 271 260 1 0;
#X text 72 75 check for "real" floats!;
#X obj 271 316 spigot 1;
#X msg 322 290 0;
#X obj 557 99 loadbang;
#X text 353 289 don't check \, if argument in use.;
#X text 145 264 found a float!;
#X obj 557 134 list append \$1;
#X obj 271 99 t a b;
#X obj 271 76 inlet;
#X connect 1 1 6 0;
#X connect 2 0 8 1;
#X connect 2 1 9 1;
#X connect 3 0 0 0;
#X connect 4 0 8 0;
#X connect 4 0 9 0;
#X connect 5 0 2 0;
#X connect 6 0 5 0;
#X connect 6 0 17 0;
#X connect 6 1 5 0;
#X connect 6 1 17 0;
#X connect 6 2 7 0;
#X connect 6 2 17 0;
#X connect 6 3 7 0;
#X connect 6 3 17 0;
#X connect 7 0 2 0;
#X connect 8 0 0 0;
#X connect 9 0 3 0;
#X connect 10 0 11 0;
#X connect 11 0 13 0;
#X connect 12 0 10 0;
#X connect 12 1 11 1;
#X connect 13 0 14 0;
#X connect 14 0 16 0;
#X connect 16 0 2 0;
#X connect 17 0 16 1;
#X connect 18 0 21 0;
#X connect 21 0 1 0;
#X connect 22 0 12 0;
#X connect 22 1 21 0;
#X connect 23 0 22 0;
