#N canvas 371 274 328 439 10;
#X obj 115 43 inlet;
#X obj 46 43 inlet;
#X obj 46 307 outlet;
#X obj 46 193 - 0;
#X obj 104 308 outlet;
#X text 46 331 1994 by Karlheinz Essl;
#X obj 46 96 - \$1;
#X obj 90 166 f;
#X obj 115 71 t a b;
#X obj 145 107 0;
#X obj 46 218 t a a;
#X obj 104 254 mod 12;
#X obj 46 123 t a a b;
#X connect 0 0 8 0;
#X connect 1 0 6 0;
#X connect 3 0 10 0;
#X connect 6 0 12 0;
#X connect 7 0 3 1;
#X connect 8 0 6 1;
#X connect 8 1 9 0;
#X connect 9 0 7 1;
#X connect 10 0 2 0;
#X connect 10 1 11 0;
#X connect 11 0 4 0;
#X connect 12 0 3 0;
#X connect 12 1 7 1;
#X connect 12 2 7 0;
