#N canvas 1 92 356 407 10;
#X obj 22 196 dac~;
#X floatatom 21 -51 5 0 0 0 - - -;
#X obj 21 -78 / 100;
#X text 58 -52 Vol / Range 0 to 1 / Default: 0;
#X floatatom 21 -106 5 0 100 0 - - -;
#X obj 83 30 vradio 15 1 1 7 empty empty empty 0 -8 0 10 -262144 -1
-1 6;
#X floatatom 83 146 5 0 0 0 - - -;
#X text 103 28 0: Bass;
#X text 103 43 1: Middle;
#X text 103 58 2: Treble;
#X text 103 73 3: Bass + Middle;
#X text 103 88 4: Bass + Treble;
#X text 103 103 5: Middle + Treble;
#X text 80 9 Eq Selector / Default: 6;
#X text 103 118 6: All;
#X obj 40 -9 hsl 128 15 -1 1 0 1 empty empty empty -2 -8 0 10 -262144
-1 -1 6300 1;
#X floatatom 37 31 5 0 0 0 - - -;
#X text 33 -33 Pan / -1-left 0-center 1-right / Default:0;
#X text 156 239 Miquel Parera / September 2013;
#X obj 21 162 nx501~;
#X text 19 -131 nx501~ / Semideterministic Drone Generator.;
#X connect 1 0 19 0;
#X connect 2 0 1 0;
#X connect 4 0 2 0;
#X connect 5 0 6 0;
#X connect 6 0 19 2;
#X connect 15 0 16 0;
#X connect 16 0 19 1;
#X connect 19 0 0 0;
#X connect 19 1 0 1;
