#N canvas 156 97 1164 797 10;
#N canvas 40 92 1029 784 generator 0;
#X obj 388 686 lop~;
#X obj 388 708 lop~;
#X floatatom 490 670 5 0 0 0 - - -;
#X obj 215 500 phasor~;
#X obj 215 625 *~ 0.7;
#X obj 214 531 -~ 0.99;
#X obj 214 562 clip~ 0 1;
#X obj 215 594 *~ 100;
#X obj 490 637 nxRandom;
#X msg 490 537 bang;
#X obj 490 590 delay 5;
#X obj 242 217 nxRandom;
#X msg 324 169 100;
#X msg 242 117 bang;
#X obj 242 170 delay 5;
#X msg 296 169 10;
#X obj 390 641 hip~ 20000;
#X obj 389 663 hip~ 20000;
#X msg 573 576 1000;
#X msg 573 620 10000;
#X obj 355 215 nxRandom;
#X msg 437 167 100;
#X msg 355 115 bang;
#X obj 355 168 delay 5;
#X msg 409 167 10;
#X obj 468 214 nxRandom;
#X msg 550 166 100;
#X msg 468 114 bang;
#X obj 468 167 delay 5;
#X msg 522 166 10;
#X obj 581 212 nxRandom;
#X msg 667 164 100;
#X msg 581 112 bang;
#X obj 581 165 delay 5;
#X msg 635 164 10;
#X floatatom 114 198 5 0 0 0 - - -;
#X obj 114 166 nxRandom;
#X msg 200 118 100;
#X msg 114 60 bang;
#X obj 114 119 delay 5;
#X msg 168 118 10;
#X obj 87 251 metro;
#X obj 87 283 counter 3;
#X obj 87 337 select 0 1 2 3;
#X floatatom 87 310 5 0 0 0 - - -;
#X obj 87 363 bng 15 250 50 0 empty empty empty 17 7 0 10 -262144 -1
-1;
#X obj 107 363 bng 15 250 50 0 empty empty empty 17 7 0 10 -262144
-1 -1;
#X obj 127 363 bng 15 250 50 0 empty empty empty 17 7 0 10 -262144
-1 -1;
#X obj 147 363 bng 15 250 50 0 empty empty empty 17 7 0 10 -262144
-1 -1;
#X obj 57 140 delay 10;
#X msg 36 234 stop;
#X floatatom 215 471 5 0 0 0 - - -;
#X obj 215 407 float;
#X obj 328 405 float;
#X obj 441 403 float;
#X obj 554 401 float;
#X obj 891 17 loadbang;
#X obj 891 45 bng 15 250 50 0 empty empty empty 17 7 0 10 -262144 -1
-1;
#X obj 387 743 outlet~;
#X obj 114 27 inlet;
#X connect 0 0 1 0;
#X connect 1 0 58 0;
#X connect 2 0 1 1;
#X connect 2 0 0 1;
#X connect 3 0 5 0;
#X connect 4 0 16 0;
#X connect 5 0 6 0;
#X connect 6 0 7 0;
#X connect 7 0 4 0;
#X connect 8 0 2 0;
#X connect 9 0 18 0;
#X connect 9 0 19 0;
#X connect 9 0 10 0;
#X connect 10 0 8 0;
#X connect 11 0 52 1;
#X connect 12 0 11 2;
#X connect 13 0 15 0;
#X connect 13 0 12 0;
#X connect 13 0 14 0;
#X connect 14 0 11 0;
#X connect 15 0 11 1;
#X connect 16 0 17 0;
#X connect 17 0 0 0;
#X connect 18 0 8 1;
#X connect 19 0 8 2;
#X connect 20 0 53 1;
#X connect 21 0 20 2;
#X connect 22 0 24 0;
#X connect 22 0 21 0;
#X connect 22 0 23 0;
#X connect 23 0 20 0;
#X connect 24 0 20 1;
#X connect 25 0 54 1;
#X connect 26 0 25 2;
#X connect 27 0 29 0;
#X connect 27 0 26 0;
#X connect 27 0 28 0;
#X connect 28 0 25 0;
#X connect 29 0 25 1;
#X connect 30 0 55 1;
#X connect 31 0 30 2;
#X connect 32 0 34 0;
#X connect 32 0 31 0;
#X connect 32 0 33 0;
#X connect 33 0 30 0;
#X connect 34 0 30 1;
#X connect 35 0 41 1;
#X connect 36 0 35 0;
#X connect 37 0 36 2;
#X connect 38 0 40 0;
#X connect 38 0 37 0;
#X connect 38 0 39 0;
#X connect 38 0 49 0;
#X connect 38 0 13 0;
#X connect 38 0 22 0;
#X connect 38 0 27 0;
#X connect 38 0 32 0;
#X connect 39 0 36 0;
#X connect 40 0 36 1;
#X connect 41 0 42 0;
#X connect 42 0 44 0;
#X connect 43 0 45 0;
#X connect 43 1 46 0;
#X connect 43 2 47 0;
#X connect 43 3 48 0;
#X connect 44 0 43 0;
#X connect 45 0 52 0;
#X connect 46 0 53 0;
#X connect 47 0 54 0;
#X connect 48 0 55 0;
#X connect 49 0 41 0;
#X connect 50 0 41 0;
#X connect 51 0 3 0;
#X connect 52 0 51 0;
#X connect 53 0 51 0;
#X connect 54 0 51 0;
#X connect 55 0 51 0;
#X connect 56 0 57 0;
#X connect 57 0 38 0;
#X connect 57 0 9 0;
#X connect 59 0 57 0;
#X restore 277 57 pd generator;
#X obj 277 32 bng 15 250 50 0 empty empty empty 17 7 0 10 -262144 -1
-1;
#X obj 277 356 vcf~;
#X obj 287 310 sig~;
#X floatatom 287 289 5 0 0 0 - - -;
#X obj 287 245 nxRandom;
#X msg 287 145 bang;
#X obj 287 198 delay 5;
#X obj 510 239 vcf~;
#X obj 520 193 sig~;
#X floatatom 520 172 5 0 0 0 - - -;
#X obj 620 155 nxRandom;
#X msg 620 55 bang;
#X obj 620 108 delay 5;
#X msg 567 193 1;
#X obj 512 14 loadbang;
#X obj 512 40 bng 15 250 50 0 empty empty empty 17 7 0 10 -262144 -1
-1;
#X obj 153 232 nxRandom;
#X msg 153 132 bang;
#X obj 153 185 delay 5;
#X obj 45 480 *~;
#X msg 60 441 1;
#X obj 277 572 *~;
#X msg 292 533 1;
#X obj 510 565 *~;
#X msg 525 526 1;
#X obj 177 589 +~;
#X obj 176 624 +~;
#X msg 94 441 0;
#X msg 331 534 0;
#X msg 568 528 0;
#X obj 732 670 clip~ -1 1;
#X obj 732 642 qompander~;
#X obj 45 292 hip~;
#X obj 44 324 hip~;
#X floatatom 152 253 5 0 0 0 - - -;
#X obj 46 258 lop~ 1000;
#X msg 207 184 5000;
#X msg 240 184 20000;
#X msg 334 310 1;
#X msg 341 197 100;
#X msg 373 197 500;
#X obj 175 651 hip~ 5;
#X obj 175 677 hip~ 5;
#X obj 277 482 *~ 10000;
#X obj 509 284 lop~ 5000;
#X obj 509 322 lop~ 5000;
#X obj 509 370 hip~ 200;
#X msg 674 107 5000;
#X msg 724 107 20000;
#X obj 509 420 *~ 4;
#X obj 45 357 *~ 50;
#X obj 276 401 lop~ 200;
#X obj 276 439 lop~ 100;
#X obj 746 573 loadbang;
#X obj 447 683 *~;
#X obj 496 642 / 100;
#X floatatom 496 667 5 0 0 0 - - -;
#X floatatom 496 614 5 0 100 0 - - -;
#X msg 746 611 0.8;
#X msg 777 611 -96;
#X msg 806 611 7.39;
#X msg 841 611 20;
#X obj 733 758 outlet~;
#X obj 733 705 equal_power_pan~;
#X obj 827 757 outlet~;
#X floatatom 931 689 5 0 0 0 - - -;
#X floatatom 931 636 5 -1 1 0 - - -;
#X obj 931 660 expr 0.5 * $f1 + 0.5;
#X obj 708 337 nxEqSelector;
#X floatatom 708 306 5 0 0 0 - - -;
#X obj 708 249 loadbang;
#X msg 708 277 6;
#X obj 815 21 inlet;
#X obj 856 21 inlet;
#X obj 897 21 inlet;
#X text 941 760 Miquel Parera / September 2013;
#X obj 979 555 loadbang;
#X msg 979 589 0;
#X connect 0 0 2 0;
#X connect 0 0 8 0;
#X connect 0 0 36 0;
#X connect 1 0 0 0;
#X connect 2 0 52 0;
#X connect 3 0 2 1;
#X connect 4 0 3 0;
#X connect 5 0 4 0;
#X connect 6 0 40 0;
#X connect 6 0 41 0;
#X connect 6 0 7 0;
#X connect 6 0 39 0;
#X connect 7 0 5 0;
#X connect 8 0 45 0;
#X connect 9 0 8 1;
#X connect 10 0 9 0;
#X connect 11 0 10 0;
#X connect 12 0 48 0;
#X connect 12 0 49 0;
#X connect 12 0 13 0;
#X connect 12 0 14 0;
#X connect 13 0 11 0;
#X connect 14 0 8 2;
#X connect 15 0 16 0;
#X connect 16 0 12 0;
#X connect 16 0 6 0;
#X connect 16 0 18 0;
#X connect 16 0 1 0;
#X connect 17 0 35 0;
#X connect 18 0 37 0;
#X connect 18 0 38 0;
#X connect 18 0 19 0;
#X connect 19 0 17 0;
#X connect 20 0 26 0;
#X connect 21 0 20 1;
#X connect 22 0 26 1;
#X connect 23 0 22 1;
#X connect 24 0 27 1;
#X connect 25 0 24 1;
#X connect 26 0 27 0;
#X connect 27 0 42 0;
#X connect 28 0 20 1;
#X connect 29 0 22 1;
#X connect 30 0 24 1;
#X connect 31 0 64 0;
#X connect 32 0 31 0;
#X connect 33 0 34 0;
#X connect 34 0 51 0;
#X connect 35 0 33 1;
#X connect 35 0 34 1;
#X connect 36 0 33 0;
#X connect 37 0 17 1;
#X connect 38 0 17 2;
#X connect 39 0 2 2;
#X connect 40 0 5 1;
#X connect 41 0 5 2;
#X connect 42 0 43 0;
#X connect 43 0 55 0;
#X connect 44 0 22 0;
#X connect 45 0 46 0;
#X connect 46 0 47 0;
#X connect 47 0 50 0;
#X connect 48 0 11 1;
#X connect 49 0 11 2;
#X connect 50 0 24 0;
#X connect 51 0 20 0;
#X connect 52 0 53 0;
#X connect 53 0 44 0;
#X connect 54 0 59 0;
#X connect 54 0 60 0;
#X connect 54 0 61 0;
#X connect 54 0 62 0;
#X connect 55 0 32 0;
#X connect 56 0 57 0;
#X connect 57 0 55 1;
#X connect 58 0 56 0;
#X connect 59 0 32 1;
#X connect 60 0 32 2;
#X connect 61 0 32 3;
#X connect 62 0 32 4;
#X connect 64 0 63 0;
#X connect 64 1 65 0;
#X connect 66 0 64 1;
#X connect 67 0 68 0;
#X connect 68 0 66 0;
#X connect 69 0 22 1;
#X connect 69 1 24 1;
#X connect 69 2 20 1;
#X connect 70 0 69 0;
#X connect 71 0 72 0;
#X connect 72 0 70 0;
#X connect 73 0 57 0;
#X connect 74 0 67 0;
#X connect 75 0 70 0;
#X connect 77 0 78 0;
#X connect 78 0 67 0;
