#N canvas 151 133 714 678 10;
#X obj 413 518 line;
#X floatatom 413 548 5 0 0 0 - - -;
#X obj 124 414 + 1;
#X obj 91 414 int;
#X floatatom 91 461 5 0 0 0 - - -;
#X msg 91 341 bang;
#X msg 127 341 stop;
#X msg 45 381 0;
#X obj 91 522 bng 15 250 50 0 empty empty empty 17 7 0 10 -262144 -1
-1;
#X obj 176 522 bng 15 250 50 0 empty empty empty 17 7 0 10 -262144
-1 -1;
#X obj 91 382 metro 1000;
#X msg 296 164 bang;
#X obj 281 365 int;
#X floatatom 296 339 5 0 0 0 - - -;
#X msg 428 347 add2 \$1;
#X msg 481 347 add2 \$1;
#X msg 428 322 1;
#X obj 508 274 / 2;
#X msg 428 383 1 37309;
#X msg 296 88 bang;
#X obj 296 137 delay 2;
#X msg 265 164 0;
#X msg 370 156 set;
#X obj 414 274 bng 15 250 50 0 empty empty empty 17 7 0 10 -262144
-1 -1;
#X obj 481 321 float;
#X floatatom 508 299 5 0 0 0 - - -;
#X obj 446 289 delay 10;
#X msg 564 345 add2 \$1;
#X msg 564 381 0 37309;
#X msg 564 320 0;
#X obj 413 442 l;
#X obj 549 436 l;
#X obj 163 288 delay 20;
#X obj 91 288 delay 40;
#X msg 239 276 0 1;
#X obj 177 49 inlet;
#X obj 219 49 inlet;
#X obj 413 582 outlet;
#X obj 99 439 select 1;
#X obj 91 490 select 0 1;
#X obj 296 227 + 30000;
#X obj 296 197 random 60000;
#X obj 380 26 inlet;
#X obj 334 25 inlet;
#X obj 365 96 -;
#X floatatom 365 124 5 0 0 0 - - -;
#X floatatom 329 88 5 0 0 0 - - -;
#X obj 397 63 bng 15 250 50 0 empty empty empty 17 7 0 10 -262144 -1
-1;
#X connect 0 0 1 0;
#X connect 1 0 37 0;
#X connect 2 0 3 1;
#X connect 3 0 2 0;
#X connect 3 0 4 0;
#X connect 3 0 38 0;
#X connect 4 0 39 0;
#X connect 5 0 10 0;
#X connect 6 0 7 0;
#X connect 6 0 9 0;
#X connect 6 0 10 0;
#X connect 7 0 3 1;
#X connect 8 0 30 0;
#X connect 9 0 31 0;
#X connect 10 0 3 0;
#X connect 11 0 41 0;
#X connect 12 0 10 1;
#X connect 13 0 12 1;
#X connect 14 0 18 0;
#X connect 15 0 18 0;
#X connect 15 0 28 0;
#X connect 16 0 14 0;
#X connect 17 0 25 0;
#X connect 18 0 30 1;
#X connect 19 0 20 0;
#X connect 19 0 21 0;
#X connect 19 0 22 0;
#X connect 19 0 32 0;
#X connect 19 0 33 0;
#X connect 20 0 11 0;
#X connect 21 0 13 0;
#X connect 21 0 34 0;
#X connect 22 0 18 0;
#X connect 22 0 28 0;
#X connect 23 0 26 0;
#X connect 24 0 15 0;
#X connect 25 0 24 1;
#X connect 26 0 24 0;
#X connect 27 0 28 0;
#X connect 28 0 31 1;
#X connect 29 0 27 0;
#X connect 30 0 0 0;
#X connect 31 0 0 0;
#X connect 32 0 12 0;
#X connect 32 0 18 0;
#X connect 32 0 28 0;
#X connect 33 0 5 0;
#X connect 34 0 1 0;
#X connect 35 0 19 0;
#X connect 36 0 6 0;
#X connect 38 0 7 0;
#X connect 39 0 8 0;
#X connect 39 1 9 0;
#X connect 40 0 13 0;
#X connect 40 0 17 0;
#X connect 40 0 16 0;
#X connect 40 0 23 0;
#X connect 40 0 29 0;
#X connect 41 0 40 0;
#X connect 42 0 44 1;
#X connect 42 0 47 0;
#X connect 43 0 44 0;
#X connect 43 0 46 0;
#X connect 44 0 45 0;
#X connect 45 0 41 1;
#X connect 46 0 40 1;
#X connect 47 0 44 0;
