#N canvas 325 238 1011 622 10;
#X text 368 160 CutOff;
#X text 422 160 Reso;
#X text 461 160 EnvMod;
#X text 511 160 Decay;
#X obj 382 65 loadbang;
#X obj 740 304 vradio 15 1 0 5 empty empty empty 0 -6 0 8 -262144 -1
-1 0;
#X msg 740 382 ext \$1;
#X obj 740 402 s bass_ctl;
#X obj 613 176 vsl 25 128 0 127 0 0 empty empty empty 0 -8 0 8 -262144
-1 -1 0 1;
#X msg 613 332 glide \$1;
#X obj 740 184 vradio 15 1 0 4 empty empty empty 0 -6 0 8 -262144 -1
-1 2;
#X obj 740 267 s bass_ctl;
#X msg 740 247 vco \$1;
#X obj 740 440 tgl 15 0 empty empty empty 0 -6 0 8 -262144 -1 -1 1
1;
#X obj 740 478 s bass_ctl;
#X msg 740 458 hpf \$1;
#X obj 24 216 vradio 15 1 0 3 empty empty empty 0 -6 0 8 -262144 -1
-1 1;
#X obj 24 296 s bass_ctl;
#X msg 24 276 limit \$1;
#X msg 739 123 tune \$1;
#X floatatom 739 105 5 0 0 0 - - -;
#X obj 739 145 s bass_ctl;
#X floatatom 23 48 5 0 0 0 - - -;
#X obj 112 351 r bass_ctl;
#X text 759 183 Saw;
#X text 759 199 Square;
#X text 759 215 Tri;
#X text 759 229 Sine;
#X text 760 441 VCO-HPF;
#X text 778 105 Tune;
#X text 757 302 Int.Only;
#X text 757 319 Ext.Only;
#X text 757 334 Int.+Ext.;
#X text 757 349 Ext.Only+HPF;
#X text 758 365 Int.+Ext.+HPF;
#X text 43 212 No limiting;
#X text 44 228 Hard Limiting;
#X text 44 243 Sine Limiting;
#X text 607 161 Glide;
#X obj 382 175 vsl 25 128 -1 1 0 0 empty empty empty 0 -8 0 8 -262144
-1 -1 10795 1;
#X obj 428 175 vsl 25 128 -1 2 0 0 empty empty empty 0 -8 0 8 -262144
-1 -1 7620 1;
#X obj 474 175 vsl 25 128 -1 2 0 0 empty empty empty 0 -8 0 8 -262144
-1 -1 7197 1;
#X obj 520 175 vsl 25 128 -1 1 0 0 empty empty empty 0 -8 0 8 -262144
-1 -1 6985 1;
#X obj 566 175 vsl 25 128 0 1 0 0 empty empty empty 0 -8 0 8 -262144
-1 -1 6350 1;
#X msg 428 132 0.8;
#X msg 474 132 0.7;
#X msg 520 132 0.1;
#X msg 566 132 0.5;
#X msg 33 104 -1;
#X obj 23 130 s bass_ctl;
#X text 739 168 VCO WaveSelect:;
#X text 738 67 VCO Tuning:;
#X text 739 289 SoundSource:;
#X text 739 424 Extra HiPass:;
#X msg 26 467 envinc \$1;
#X obj 26 487 s bass_ctl;
#X msg 26 328 8;
#X msg 26 345 64;
#X msg 26 362 256;
#X msg 26 379 1024;
#X msg 26 396 8192;
#X msg 26 430 32768;
#X msg 26 447 65536;
#X msg 26 413 16384;
#X msg 382 315 cutoff \$1;
#X msg 428 335 reso \$1;
#X obj 474 371 s bass_ctl;
#X msg 474 311 envmod \$1;
#X msg 520 331 decay \$1;
#X msg 566 311 pw \$1;
#X msg 119 382 reset;
#X text 564 150 Rect;
#X text 561 160 Width;
#X obj 613 311 / 127;
#X msg 227 286 pitch \$1;
#X obj 230 228 hsl 129 15 0 128 0 0 empty empty empty -2 -6 0 8 -262144
-1 -1 6400 1;
#X obj 227 245 - 64;
#X obj 227 305 s bass_ctl;
#X obj 227 264 / 16;
#X msg 227 209 64;
#X obj 260 246 nbx 5 14 -1e+37 1e+37 0 0 empty empty empty 0 -6 0 10
-262144 -1 -1 0 256;
#X text 268 209 Pitch Bend;
#N canvas 504 253 494 344 META 0;
#X text 12 135 RELEASE_DATE 2009-06-12;
#X text 12 155 HELP_PATCH_AUTHORS "pd meta" information added by Jonathan
Wilkes for Pd version 0.42.;
#X text 12 45 DESCRIPTION a transistor bass emulation;
#X text 12 65 INLET_0 float list reset pitch cutoff reso envmod decay
pw glide limit envinc hpf ext vco tune;
#X text 12 95 OUTLET_0 signal;
#X text 12 115 AUTHOR Christian Klippel;
#X text 12 25 LICENSE GPL;
#X text 12 5 KEYWORDS signal;
#X restore 810 537 pd META;
#X obj 112 419 bassemu~;
#X obj 23 22 inlet;
#X msg 24 187 1;
#X obj 24 159 loadbang;
#X obj 285 598 outlet~;
#X obj 836 175 loadbang;
#X msg 836 203 2;
#X msg 382 132 0.7;
#X obj 206 497 moog~;
#X floatatom 282 416 5 0 0 0 - - -;
#X obj 218 415 +~ 1;
#X floatatom 218 373 5 0 0 0 - - -;
#X floatatom 282 438 5 0 0 0 - - -;
#X obj 218 456 +~ 100;
#X obj 218 394 osc~ 0.25;
#X obj 218 435 *~ 2000;
#X floatatom 321 419 5 0 0 0 - - -;
#X obj 321 438 sig~ 3;
#X msg 218 351 100;
#X obj 218 327 loadbang;
#X msg 321 394 4;
#X obj 369 535 moog~;
#X floatatom 445 454 5 0 0 0 - - -;
#X obj 381 453 +~ 1;
#X floatatom 381 411 5 0 0 0 - - -;
#X floatatom 445 476 5 0 0 0 - - -;
#X obj 381 494 +~ 100;
#X obj 381 432 osc~ 0.25;
#X obj 381 473 *~ 2000;
#X floatatom 484 457 5 0 0 0 - - -;
#X obj 484 476 sig~ 3;
#X obj 381 365 loadbang;
#X obj 222 534 *~;
#X obj 271 518 line~;
#X obj 284 563 +~;
#X obj 427 556 *~;
#X obj 476 540 line~;
#X obj 162 114 inlet;
#X obj 200 114 inlet;
#X msg 739 82 10000;
#X msg 484 432 4;
#X obj 682 402 loadbang;
#X msg 381 389 10000;
#X connect 4 0 90 0;
#X connect 4 0 44 0;
#X connect 4 0 45 0;
#X connect 4 0 46 0;
#X connect 4 0 47 0;
#X connect 4 0 122 0;
#X connect 4 0 79 0;
#X connect 5 0 6 0;
#X connect 6 0 7 0;
#X connect 8 0 73 0;
#X connect 9 0 66 0;
#X connect 10 0 12 0;
#X connect 12 0 11 0;
#X connect 13 0 15 0;
#X connect 15 0 14 0;
#X connect 16 0 18 0;
#X connect 18 0 17 0;
#X connect 19 0 21 0;
#X connect 20 0 19 0;
#X connect 22 0 49 0;
#X connect 23 0 83 0;
#X connect 39 0 64 0;
#X connect 40 0 65 0;
#X connect 41 0 67 0;
#X connect 42 0 68 0;
#X connect 43 0 69 0;
#X connect 44 0 40 0;
#X connect 45 0 41 0;
#X connect 46 0 42 0;
#X connect 47 0 43 0;
#X connect 48 0 49 0;
#X connect 54 0 55 0;
#X connect 56 0 54 0;
#X connect 57 0 54 0;
#X connect 58 0 54 0;
#X connect 59 0 54 0;
#X connect 60 0 54 0;
#X connect 61 0 54 0;
#X connect 62 0 54 0;
#X connect 63 0 54 0;
#X connect 64 0 66 0;
#X connect 65 0 66 0;
#X connect 67 0 66 0;
#X connect 68 0 66 0;
#X connect 69 0 66 0;
#X connect 70 0 83 0;
#X connect 73 0 9 0;
#X connect 74 0 77 0;
#X connect 75 0 76 0;
#X connect 76 0 78 0;
#X connect 78 0 74 0;
#X connect 78 0 80 0;
#X connect 79 0 75 0;
#X connect 83 0 91 0;
#X connect 83 0 104 0;
#X connect 84 0 22 0;
#X connect 85 0 16 0;
#X connect 86 0 85 0;
#X connect 88 0 89 0;
#X connect 89 0 10 0;
#X connect 90 0 39 0;
#X connect 91 0 115 0;
#X connect 92 0 98 1;
#X connect 93 0 98 0;
#X connect 94 0 97 0;
#X connect 95 0 96 1;
#X connect 96 0 91 1;
#X connect 97 0 93 0;
#X connect 98 0 96 0;
#X connect 99 0 100 0;
#X connect 100 0 91 2;
#X connect 101 0 94 0;
#X connect 102 0 101 0;
#X connect 102 0 103 0;
#X connect 103 0 99 0;
#X connect 104 0 118 0;
#X connect 105 0 111 1;
#X connect 106 0 111 0;
#X connect 107 0 110 0;
#X connect 108 0 109 1;
#X connect 109 0 104 1;
#X connect 110 0 106 0;
#X connect 111 0 109 0;
#X connect 112 0 113 0;
#X connect 113 0 104 2;
#X connect 114 0 125 0;
#X connect 114 0 123 0;
#X connect 115 0 117 0;
#X connect 116 0 115 1;
#X connect 117 0 87 0;
#X connect 118 0 117 1;
#X connect 119 0 118 1;
#X connect 120 0 116 0;
#X connect 121 0 119 0;
#X connect 122 0 20 0;
#X connect 123 0 112 0;
#X connect 124 0 13 0;
#X connect 125 0 107 0;
