#N canvas 1 82 758 329 10;
#X obj 45 48 select 0 1 2 3 4 5 6;
#X obj 45 120 bng 15 250 50 0 empty empty empty 17 7 0 10 -262144 -1
-1;
#X msg 74 157 0;
#X msg 104 157 0;
#X obj 135 120 bng 15 250 50 0 empty empty empty 17 7 0 10 -262144
-1 -1;
#X msg 135 157 0;
#X msg 194 157 0;
#X obj 224 120 bng 15 250 50 0 empty empty empty 17 7 0 10 -262144
-1 -1;
#X msg 224 157 0;
#X msg 253 157 0;
#X obj 314 120 bng 15 250 50 0 empty empty empty 17 7 0 10 -262144
-1 -1;
#X msg 373 157 0;
#X obj 403 120 bng 15 250 50 0 empty empty empty 17 7 0 10 -262144
-1 -1;
#X msg 432 157 0;
#X obj 493 120 bng 15 250 50 0 empty empty empty 17 7 0 10 -262144
-1 -1;
#X msg 493 157 0;
#X obj 582 120 bng 15 250 50 0 empty empty empty 17 7 0 10 -262144
-1 -1;
#X floatatom 45 17 5 0 0 0 - - -;
#X floatatom 224 234 5 0 0 1 Bass - -;
#X floatatom 298 234 5 0 0 1 Meddle - -;
#X floatatom 374 233 5 0 0 1 Treble - -;
#X msg 45 157 1;
#X msg 164 157 1;
#X msg 283 157 1;
#X msg 314 157 1;
#X msg 343 157 1;
#X msg 403 157 1;
#X msg 462 157 1;
#X msg 522 157 1;
#X msg 552 157 1;
#X msg 582 157 1;
#X msg 611 157 1;
#X msg 641 157 1;
#X obj 224 266 outlet;
#X obj 298 266 outlet;
#X obj 374 264 outlet;
#X obj 45 -10 inlet;
#X connect 0 0 1 0;
#X connect 0 1 4 0;
#X connect 0 2 7 0;
#X connect 0 3 10 0;
#X connect 0 4 12 0;
#X connect 0 5 14 0;
#X connect 0 6 16 0;
#X connect 1 0 21 0;
#X connect 1 0 2 0;
#X connect 1 0 3 0;
#X connect 2 0 19 0;
#X connect 3 0 20 0;
#X connect 4 0 5 0;
#X connect 4 0 22 0;
#X connect 4 0 6 0;
#X connect 5 0 18 0;
#X connect 6 0 20 0;
#X connect 7 0 8 0;
#X connect 7 0 9 0;
#X connect 7 0 23 0;
#X connect 8 0 18 0;
#X connect 9 0 19 0;
#X connect 10 0 24 0;
#X connect 10 0 25 0;
#X connect 10 0 11 0;
#X connect 11 0 20 0;
#X connect 12 0 26 0;
#X connect 12 0 13 0;
#X connect 12 0 27 0;
#X connect 13 0 19 0;
#X connect 14 0 15 0;
#X connect 14 0 28 0;
#X connect 14 0 29 0;
#X connect 15 0 18 0;
#X connect 16 0 30 0;
#X connect 16 0 31 0;
#X connect 16 0 32 0;
#X connect 17 0 0 0;
#X connect 18 0 33 0;
#X connect 19 0 34 0;
#X connect 20 0 35 0;
#X connect 21 0 18 0;
#X connect 22 0 19 0;
#X connect 23 0 20 0;
#X connect 24 0 18 0;
#X connect 25 0 19 0;
#X connect 26 0 18 0;
#X connect 27 0 20 0;
#X connect 28 0 19 0;
#X connect 29 0 20 0;
#X connect 30 0 18 0;
#X connect 31 0 19 0;
#X connect 32 0 20 0;
#X connect 36 0 17 0;
