#N canvas 1 82 602 300 10;
#X obj 72 161 nxEqSelector;
#X floatatom 72 218 5 0 0 1 Bass - -;
#X floatatom 146 218 5 0 0 1 Meddle - -;
#X floatatom 222 217 5 0 0 1 Treble - -;
#X msg 72 20 0;
#X text 97 19 Bass;
#X text 160 19 Middle;
#X text 235 18 Treble;
#X text 315 18 Bass + Middle;
#X text 316 46 Bass + Treble;
#X text 316 75 Middle + Treble;
#X text 44 56 All;
#X msg 130 20 1;
#X msg 206 20 2;
#X msg 286 19 3;
#X msg 286 47 4;
#X msg 286 76 5;
#X msg 11 58 6;
#X text 353 166 Eq ON/OFF selector.;
#X text 353 181 Miquel Parera / September 2013;
#X connect 0 0 1 0;
#X connect 0 1 2 0;
#X connect 0 2 3 0;
#X connect 4 0 0 0;
#X connect 12 0 0 0;
#X connect 13 0 0 0;
#X connect 14 0 0 0;
#X connect 15 0 0 0;
#X connect 16 0 0 0;
#X connect 17 0 0 0;
