#N canvas 1 86 399 370 10;
#X obj 35 27 cnv 15 300 300 empty empty empty 20 12 0 14 -1 -66577
0;
#X obj 58 52 tgl 30 0 nxNome00s nxNome00r empty 17 7 0 10 -262144 -1
-1 1 1;
#X obj 90 52 tgl 30 0 nxNome01s nxNome01r empty 17 7 0 10 -262144 -1
-1 0 1;
#X obj 122 52 tgl 30 0 nxNome02s nxNome02r empty 17 7 0 10 -262144
-1 -1 0 1;
#X obj 154 52 tgl 30 0 nxNome03s nxNome03r empty 17 7 0 10 -262144
-1 -1 0 1;
#X obj 186 52 tgl 30 0 nxNome04s nxNome04r empty 17 7 0 10 -262144
-1 -1 0 1;
#X obj 218 52 tgl 30 0 nxNome05s nxNome05r empty 17 7 0 10 -262144
-1 -1 0 1;
#X obj 250 52 tgl 30 0 nxNome06s nxNome06r empty 17 7 0 10 -262144
-1 -1 0 1;
#X obj 282 52 tgl 30 0 nxNome07s nxNome07r empty 17 7 0 10 -262144
-1 -1 0 1;
#X obj 58 84 tgl 30 0 nxNome08s nxNome08r empty 17 7 0 10 -262144 -1
-1 0 1;
#X obj 90 84 tgl 30 0 nxNome09s nxNome09r empty 17 7 0 10 -262144 -1
-1 0 1;
#X obj 122 84 tgl 30 0 nxNome10s nxNome10r empty 17 7 0 10 -262144
-1 -1 0 1;
#X obj 154 84 tgl 30 0 nxNome11s nxNome11r empty 17 7 0 10 -262144
-1 -1 0 1;
#X obj 186 84 tgl 30 0 nxNome12s nxNome12r empty 17 7 0 10 -262144
-1 -1 0 1;
#X obj 218 84 tgl 30 0 nxNome13s nxNome13r empty 17 7 0 10 -262144
-1 -1 0 1;
#X obj 250 84 tgl 30 0 nxNome14s nxNome14r empty 17 7 0 10 -262144
-1 -1 0 1;
#X obj 282 84 tgl 30 0 nxNome15s nxNome15r empty 17 7 0 10 -262144
-1 -1 0 1;
#X obj 58 116 tgl 30 0 nxNome16s nxNome16r empty 17 7 0 10 -262144
-1 -1 1 1;
#X obj 90 116 tgl 30 0 nxNome17s nxNome17r empty 17 7 0 10 -262144
-1 -1 1 1;
#X obj 122 116 tgl 30 0 nxNome18s nxNome18r empty 17 7 0 10 -262144
-1 -1 1 1;
#X obj 154 116 tgl 30 0 nxNome19s nxNome19r empty 17 7 0 10 -262144
-1 -1 1 1;
#X obj 186 116 tgl 30 0 nxNome20s nxNome20r empty 17 7 0 10 -262144
-1 -1 0 1;
#X obj 218 116 tgl 30 0 nxNome21s nxNome21r empty 17 7 0 10 -262144
-1 -1 0 1;
#X obj 250 116 tgl 30 0 nxNome22s nxNome22r empty 17 7 0 10 -262144
-1 -1 1 1;
#X obj 282 116 tgl 30 0 nxNome23s nxNome23r empty 17 7 0 10 -262144
-1 -1 1 1;
#X obj 58 148 tgl 30 0 nxNome24s nxNome24r empty 17 7 0 10 -262144
-1 -1 1 1;
#X obj 90 148 tgl 30 0 nxNome25s nxNome25r empty 17 7 0 10 -262144
-1 -1 1 1;
#X obj 122 148 tgl 30 0 nxNome26s nxNome26r empty 17 7 0 10 -262144
-1 -1 1 1;
#X obj 154 148 tgl 30 0 nxNome27s nxNome27r empty 17 7 0 10 -262144
-1 -1 1 1;
#X obj 186 148 tgl 30 0 nxNome28s nxNome28r empty 17 7 0 10 -262144
-1 -1 0 1;
#X obj 218 148 tgl 30 0 nxNome29s nxNome29r empty 17 7 0 10 -262144
-1 -1 0 1;
#X obj 250 148 tgl 30 0 nxNome30s nxNome30r empty 17 7 0 10 -262144
-1 -1 1 1;
#X obj 282 148 tgl 30 0 nxNome31s nxNome31r empty 17 7 0 10 -262144
-1 -1 1 1;
#X obj 58 180 tgl 30 0 nxNome32s nxNome32r empty 17 7 0 10 -262144
-1 -1 1 1;
#X obj 90 180 tgl 30 0 nxNome33s nxNome33r empty 17 7 0 10 -262144
-1 -1 0 1;
#X obj 122 180 tgl 30 0 nxNome34s nxNome34r empty 17 7 0 10 -262144
-1 -1 0 1;
#X obj 154 180 tgl 30 0 nxNome35s nxNome35r empty 17 7 0 10 -262144
-1 -1 1 1;
#X obj 186 180 tgl 30 0 nxNome36s nxNome36r empty 17 7 0 10 -262144
-1 -1 0 1;
#X obj 218 180 tgl 30 0 nxNome37s nxNome37r empty 17 7 0 10 -262144
-1 -1 0 1;
#X obj 250 180 tgl 30 0 nxNome38s nxNome38r empty 17 7 0 10 -262144
-1 -1 0 1;
#X obj 282 180 tgl 30 0 nxNome39s nxNome39r empty 17 7 0 10 -262144
-1 -1 0 1;
#X obj 58 212 tgl 30 0 nxNome40s nxNome40r empty 17 7 0 10 -262144
-1 -1 1 1;
#X obj 90 212 tgl 30 0 nxNome41s nxNome41r empty 17 7 0 10 -262144
-1 -1 0 1;
#X obj 122 212 tgl 30 0 nxNome42s nxNome42r empty 17 7 0 10 -262144
-1 -1 1 1;
#X obj 154 212 tgl 30 0 nxNome43s nxNome43r empty 17 7 0 10 -262144
-1 -1 0 1;
#X obj 186 212 tgl 30 0 nxNome44s nxNome44r empty 17 7 0 10 -262144
-1 -1 1 1;
#X obj 218 212 tgl 30 0 nxNome45s nxNome45r empty 17 7 0 10 -262144
-1 -1 1 1;
#X obj 250 212 tgl 30 0 nxNome46s nxNome46r empty 17 7 0 10 -262144
-1 -1 1 1;
#X obj 282 212 tgl 30 0 nxNome47s nxNome47r empty 17 7 0 10 -262144
-1 -1 1 1;
#X obj 58 244 tgl 30 0 nxNome48s nxNome48r empty 17 7 0 10 -262144
-1 -1 0 1;
#X obj 90 244 tgl 30 0 nxNome49s nxNome49r empty 17 7 0 10 -262144
-1 -1 1 1;
#X obj 122 244 tgl 30 0 nxNome50s nxNome50r empty 17 7 0 10 -262144
-1 -1 1 1;
#X obj 154 244 tgl 30 0 nxNome51s nxNome51r empty 17 7 0 10 -262144
-1 -1 0 1;
#X obj 186 244 tgl 30 0 nxNome52s nxNome52r empty 17 7 0 10 -262144
-1 -1 0 1;
#X obj 218 244 tgl 30 0 nxNome53s nxNome53r empty 17 7 0 10 -262144
-1 -1 1 1;
#X obj 250 244 tgl 30 0 nxNome54s nxNome54r empty 17 7 0 10 -262144
-1 -1 0 1;
#X obj 282 244 tgl 30 0 nxNome55s nxNome55r empty 17 7 0 10 -262144
-1 -1 1 1;
#X obj 58 276 tgl 30 0 nxNome56s nxNome56r empty 17 7 0 10 -262144
-1 -1 1 1;
#X obj 90 276 tgl 30 0 nxNome57s nxNome57r empty 17 7 0 10 -262144
-1 -1 1 1;
#X obj 122 276 tgl 30 0 nxNome58s nxNome58r empty 17 7 0 10 -262144
-1 -1 1 1;
#X obj 154 276 tgl 30 0 nxNome59s nxNome59r empty 17 7 0 10 -262144
-1 -1 0 1;
#X obj 186 276 tgl 30 0 nxNome60s nxNome60r empty 17 7 0 10 -262144
-1 -1 0 1;
#X obj 218 276 tgl 30 0 nxNome61s nxNome61r empty 17 7 0 10 -262144
-1 -1 0 1;
#X obj 250 276 tgl 30 0 nxNome62s nxNome62r empty 17 7 0 10 -262144
-1 -1 0 1;
#X obj 282 276 tgl 30 0 nxNome63s nxNome63r empty 17 7 0 10 -262144
-1 -1 0 1;
#N canvas 521 298 389 190 nxNomeControl 1;
#N canvas 709 373 664 502 visualizeOutput 0;
#X obj 47 47 r nxNome00s;
#X floatatom 47 75 5 0 0 0 - - -;
#X floatatom 119 75 5 0 0 0 - - -;
#X floatatom 191 75 5 0 0 0 - - -;
#X floatatom 263 75 5 0 0 0 - - -;
#X floatatom 335 75 5 0 0 0 - - -;
#X floatatom 407 75 5 0 0 0 - - -;
#X floatatom 479 75 5 0 0 0 - - -;
#X floatatom 551 75 5 0 0 0 - - -;
#X floatatom 47 124 5 0 0 0 - - -;
#X floatatom 119 124 5 0 0 0 - - -;
#X floatatom 191 124 5 0 0 0 - - -;
#X floatatom 263 124 5 0 0 0 - - -;
#X floatatom 335 124 5 0 0 0 - - -;
#X floatatom 407 124 5 0 0 0 - - -;
#X floatatom 479 124 5 0 0 0 - - -;
#X floatatom 551 124 5 0 0 0 - - -;
#X floatatom 46 173 5 0 0 0 - - -;
#X floatatom 118 173 5 0 0 0 - - -;
#X floatatom 190 173 5 0 0 0 - - -;
#X floatatom 262 173 5 0 0 0 - - -;
#X floatatom 334 173 5 0 0 0 - - -;
#X floatatom 406 173 5 0 0 0 - - -;
#X floatatom 478 173 5 0 0 0 - - -;
#X floatatom 550 173 5 0 0 0 - - -;
#X floatatom 46 222 5 0 0 0 - - -;
#X floatatom 118 222 5 0 0 0 - - -;
#X floatatom 190 222 5 0 0 0 - - -;
#X floatatom 262 222 5 0 0 0 - - -;
#X floatatom 334 222 5 0 0 0 - - -;
#X floatatom 406 222 5 0 0 0 - - -;
#X floatatom 478 222 5 0 0 0 - - -;
#X floatatom 550 222 5 0 0 0 - - -;
#X obj 119 47 r nxNome01s;
#X obj 191 47 r nxNome02s;
#X obj 263 47 r nxNome03s;
#X obj 335 47 r nxNome04s;
#X obj 407 47 r nxNome05s;
#X obj 479 47 r nxNome06s;
#X obj 551 47 r nxNome07s;
#X obj 47 96 r nxNome08s;
#X obj 119 96 r nxNome09s;
#X obj 191 96 r nxNome10s;
#X obj 263 96 r nxNome11s;
#X obj 335 96 r nxNome12s;
#X obj 407 96 r nxNome13s;
#X obj 479 96 r nxNome14s;
#X obj 551 96 r nxNome15s;
#X obj 46 145 r nxNome16s;
#X obj 118 145 r nxNome17s;
#X obj 190 145 r nxNome18s;
#X obj 262 145 r nxNome19s;
#X obj 334 145 r nxNome20s;
#X obj 406 145 r nxNome21s;
#X obj 478 145 r nxNome22s;
#X obj 550 145 r nxNome23s;
#X obj 46 194 r nxNome24s;
#X obj 118 194 r nxNome25s;
#X obj 190 194 r nxNome26s;
#X obj 262 194 r nxNome27s;
#X obj 334 194 r nxNome28s;
#X obj 406 194 r nxNome29s;
#X obj 478 194 r nxNome30s;
#X obj 550 194 r nxNome31s;
#X floatatom 46 270 5 0 0 0 - - -;
#X floatatom 118 270 5 0 0 0 - - -;
#X floatatom 190 270 5 0 0 0 - - -;
#X floatatom 262 270 5 0 0 0 - - -;
#X floatatom 334 270 5 0 0 0 - - -;
#X floatatom 406 270 5 0 0 0 - - -;
#X floatatom 478 270 5 0 0 0 - - -;
#X floatatom 550 270 5 0 0 0 - - -;
#X floatatom 46 319 5 0 0 0 - - -;
#X floatatom 118 319 5 0 0 0 - - -;
#X floatatom 190 319 5 0 0 0 - - -;
#X floatatom 262 319 5 0 0 0 - - -;
#X floatatom 334 319 5 0 0 0 - - -;
#X floatatom 406 319 5 0 0 0 - - -;
#X floatatom 478 319 5 0 0 0 - - -;
#X floatatom 550 319 5 0 0 0 - - -;
#X floatatom 45 368 5 0 0 0 - - -;
#X floatatom 117 368 5 0 0 0 - - -;
#X floatatom 189 368 5 0 0 0 - - -;
#X floatatom 261 368 5 0 0 0 - - -;
#X floatatom 333 368 5 0 0 0 - - -;
#X floatatom 405 368 5 0 0 0 - - -;
#X floatatom 477 368 5 0 0 0 - - -;
#X floatatom 549 368 5 0 0 0 - - -;
#X floatatom 45 417 5 0 0 0 - - -;
#X floatatom 117 417 5 0 0 0 - - -;
#X floatatom 189 417 5 0 0 0 - - -;
#X floatatom 261 417 5 0 0 0 - - -;
#X floatatom 333 417 5 0 0 0 - - -;
#X floatatom 405 417 5 0 0 0 - - -;
#X floatatom 477 417 5 0 0 0 - - -;
#X floatatom 549 417 5 0 0 0 - - -;
#X obj 46 242 r nxNome32s;
#X obj 118 242 r nxNome33s;
#X obj 190 242 r nxNome34s;
#X obj 262 242 r nxNome35s;
#X obj 334 242 r nxNome36s;
#X obj 406 242 r nxNome37s;
#X obj 478 242 r nxNome38s;
#X obj 550 242 r nxNome39s;
#X obj 46 291 r nxNome40s;
#X obj 118 291 r nxNome41s;
#X obj 190 291 r nxNome42s;
#X obj 262 291 r nxNome43s;
#X obj 334 291 r nxNome44s;
#X obj 406 291 r nxNome45s;
#X obj 478 291 r nxNome46s;
#X obj 550 291 r nxNome47s;
#X obj 45 340 r nxNome48s;
#X obj 117 340 r nxNome49s;
#X obj 189 340 r nxNome50s;
#X obj 261 340 r nxNome51s;
#X obj 333 340 r nxNome52s;
#X obj 405 340 r nxNome53s;
#X obj 477 340 r nxNome54s;
#X obj 549 340 r nxNome55s;
#X obj 45 389 r nxNome56s;
#X obj 117 389 r nxNome57s;
#X obj 189 389 r nxNome58s;
#X obj 261 389 r nxNome59s;
#X obj 333 389 r nxNome60s;
#X obj 405 389 r nxNome61s;
#X obj 477 389 r nxNome62s;
#X obj 549 389 r nxNome63s;
#X connect 0 0 1 0;
#X connect 33 0 2 0;
#X connect 34 0 3 0;
#X connect 35 0 4 0;
#X connect 36 0 5 0;
#X connect 37 0 6 0;
#X connect 38 0 7 0;
#X connect 39 0 8 0;
#X connect 40 0 9 0;
#X connect 41 0 10 0;
#X connect 42 0 11 0;
#X connect 43 0 12 0;
#X connect 44 0 13 0;
#X connect 45 0 14 0;
#X connect 46 0 15 0;
#X connect 47 0 16 0;
#X connect 48 0 17 0;
#X connect 49 0 18 0;
#X connect 50 0 19 0;
#X connect 51 0 20 0;
#X connect 52 0 21 0;
#X connect 53 0 22 0;
#X connect 54 0 23 0;
#X connect 55 0 24 0;
#X connect 56 0 25 0;
#X connect 57 0 26 0;
#X connect 58 0 27 0;
#X connect 59 0 28 0;
#X connect 60 0 29 0;
#X connect 61 0 30 0;
#X connect 62 0 31 0;
#X connect 63 0 32 0;
#X connect 96 0 64 0;
#X connect 97 0 65 0;
#X connect 98 0 66 0;
#X connect 99 0 67 0;
#X connect 100 0 68 0;
#X connect 101 0 69 0;
#X connect 102 0 70 0;
#X connect 103 0 71 0;
#X connect 104 0 72 0;
#X connect 105 0 73 0;
#X connect 106 0 74 0;
#X connect 107 0 75 0;
#X connect 108 0 76 0;
#X connect 109 0 77 0;
#X connect 110 0 78 0;
#X connect 111 0 79 0;
#X connect 112 0 80 0;
#X connect 113 0 81 0;
#X connect 114 0 82 0;
#X connect 115 0 83 0;
#X connect 116 0 84 0;
#X connect 117 0 85 0;
#X connect 118 0 86 0;
#X connect 119 0 87 0;
#X connect 120 0 88 0;
#X connect 121 0 89 0;
#X connect 122 0 90 0;
#X connect 123 0 91 0;
#X connect 124 0 92 0;
#X connect 125 0 93 0;
#X connect 126 0 94 0;
#X connect 127 0 95 0;
#X restore -216 11 pd visualizeOutput;
#N canvas 484 130 851 644 nxNome01 0;
#X text -86 11 ON / OFF;
#X floatatom 6 111 4 0 0 2 brown_factor - -;
#X obj -123 76 metro 200;
#X obj -123 16 tgl 15 0 empty empty empty 0 -6 0 8 -262144 -1 -1 1
1;
#X floatatom -123 176 4 0 0 1 note - -;
#X obj -123 109 bng 15 250 50 0 empty empty rhythm_bangs 0 -6 0 8 -262144
-1 -1;
#X floatatom -72 52 5 50 2000 2 speed - -;
#X obj -123 -6 r nxNome00s;
#X obj -123 144 brown-melody 16 63 0.1;
#X obj -123 325 tgl 15 0 empty empty empty 17 7 0 10 -262144 -1 -1
1 1;
#X obj -123 220 select 16 17 18 19 20 21 22 23 24 25 26 27 28 29 30
31 32 33 34 35 36 37 38 39 40 41 42 43 44 45 46 47 48 49 50 51 52 53
54 55 56 57 58 59 60 61 62 63;
#X obj -50 325 tgl 15 0 empty empty empty 17 7 0 10 -262144 -1 -1 1
1;
#X obj 23 325 tgl 15 0 empty empty empty 17 7 0 10 -262144 -1 -1 1
1;
#X obj 96 325 tgl 15 0 empty empty empty 17 7 0 10 -262144 -1 -1 1
1;
#X obj 169 325 tgl 15 0 empty empty empty 17 7 0 10 -262144 -1 -1 0
1;
#X obj 242 325 tgl 15 0 empty empty empty 17 7 0 10 -262144 -1 -1 0
1;
#X obj 315 325 tgl 15 0 empty empty empty 17 7 0 10 -262144 -1 -1 1
1;
#X obj 388 325 tgl 15 0 empty empty empty 17 7 0 10 -262144 -1 -1 1
1;
#X obj -123 370 tgl 15 0 empty empty empty 17 7 0 10 -262144 -1 -1
1 1;
#X obj -50 370 tgl 15 0 empty empty empty 17 7 0 10 -262144 -1 -1 1
1;
#X obj 23 370 tgl 15 0 empty empty empty 17 7 0 10 -262144 -1 -1 1
1;
#X obj 96 370 tgl 15 0 empty empty empty 17 7 0 10 -262144 -1 -1 1
1;
#X obj 169 370 tgl 15 0 empty empty empty 17 7 0 10 -262144 -1 -1 0
1;
#X obj 242 370 tgl 15 0 empty empty empty 17 7 0 10 -262144 -1 -1 0
1;
#X obj 315 370 tgl 15 0 empty empty empty 17 7 0 10 -262144 -1 -1 1
1;
#X obj 388 370 tgl 15 0 empty empty empty 17 7 0 10 -262144 -1 -1 1
1;
#X obj -123 412 tgl 15 0 empty empty empty 17 7 0 10 -262144 -1 -1
1 1;
#X obj -50 412 tgl 15 0 empty empty empty 17 7 0 10 -262144 -1 -1 0
1;
#X obj 23 412 tgl 15 0 empty empty empty 17 7 0 10 -262144 -1 -1 0
1;
#X obj 96 412 tgl 15 0 empty empty empty 17 7 0 10 -262144 -1 -1 1
1;
#X obj 169 412 tgl 15 0 empty empty empty 17 7 0 10 -262144 -1 -1 0
1;
#X obj 242 412 tgl 15 0 empty empty empty 17 7 0 10 -262144 -1 -1 0
1;
#X obj 315 412 tgl 15 0 empty empty empty 17 7 0 10 -262144 -1 -1 0
1;
#X obj 388 412 tgl 15 0 empty empty empty 17 7 0 10 -262144 -1 -1 0
1;
#X obj -123 457 tgl 15 0 empty empty empty 17 7 0 10 -262144 -1 -1
1 1;
#X obj -50 457 tgl 15 0 empty empty empty 17 7 0 10 -262144 -1 -1 0
1;
#X obj 23 457 tgl 15 0 empty empty empty 17 7 0 10 -262144 -1 -1 1
1;
#X obj 96 457 tgl 15 0 empty empty empty 17 7 0 10 -262144 -1 -1 0
1;
#X obj 169 457 tgl 15 0 empty empty empty 17 7 0 10 -262144 -1 -1 1
1;
#X obj 242 457 tgl 15 0 empty empty empty 17 7 0 10 -262144 -1 -1 1
1;
#X obj 315 457 tgl 15 0 empty empty empty 17 7 0 10 -262144 -1 -1 1
1;
#X obj 388 457 tgl 15 0 empty empty empty 17 7 0 10 -262144 -1 -1 1
1;
#X obj -123 500 tgl 15 0 empty empty empty 17 7 0 10 -262144 -1 -1
0 1;
#X obj -50 500 tgl 15 0 empty empty empty 17 7 0 10 -262144 -1 -1 1
1;
#X obj 23 500 tgl 15 0 empty empty empty 17 7 0 10 -262144 -1 -1 1
1;
#X obj 96 500 tgl 15 0 empty empty empty 17 7 0 10 -262144 -1 -1 0
1;
#X obj 169 500 tgl 15 0 empty empty empty 17 7 0 10 -262144 -1 -1 0
1;
#X obj 242 500 tgl 15 0 empty empty empty 17 7 0 10 -262144 -1 -1 1
1;
#X obj 315 500 tgl 15 0 empty empty empty 17 7 0 10 -262144 -1 -1 0
1;
#X obj 388 500 tgl 15 0 empty empty empty 17 7 0 10 -262144 -1 -1 1
1;
#X obj -123 545 tgl 15 0 empty empty empty 17 7 0 10 -262144 -1 -1
1 1;
#X obj -50 545 tgl 15 0 empty empty empty 17 7 0 10 -262144 -1 -1 1
1;
#X obj 23 545 tgl 15 0 empty empty empty 17 7 0 10 -262144 -1 -1 1
1;
#X obj 96 545 tgl 15 0 empty empty empty 17 7 0 10 -262144 -1 -1 0
1;
#X obj 169 545 tgl 15 0 empty empty empty 17 7 0 10 -262144 -1 -1 0
1;
#X obj 242 545 tgl 15 0 empty empty empty 17 7 0 10 -262144 -1 -1 0
1;
#X obj 315 545 tgl 15 0 empty empty empty 17 7 0 10 -262144 -1 -1 0
1;
#X obj 388 545 tgl 15 0 empty empty empty 17 7 0 10 -262144 -1 -1 0
1;
#X obj 315 391 s nxNome30r;
#X obj 388 391 s nxNome31r;
#X obj -123 433 s nxNome32r;
#X obj -50 433 s nxNome33r;
#X obj 23 433 s nxNome34r;
#X obj 96 433 s nxNome35r;
#X obj 169 433 s nxNome36r;
#X obj 242 433 s nxNome37r;
#X obj 315 433 s nxNome38r;
#X obj 388 433 s nxNome39r;
#X obj -123 478 s nxNome40r;
#X obj -50 478 s nxNome41r;
#X obj 23 478 s nxNome42r;
#X obj 96 478 s nxNome43r;
#X obj 169 478 s nxNome44r;
#X obj 242 478 s nxNome45r;
#X obj 315 478 s nxNome46r;
#X obj 388 478 s nxNome47r;
#X obj -123 521 s nxNome48r;
#X obj -50 521 s nxNome49r;
#X obj 23 521 s nxNome50r;
#X obj 96 521 s nxNome51r;
#X obj 169 521 s nxNome52r;
#X obj 242 521 s nxNome53r;
#X obj 315 521 s nxNome54r;
#X obj 388 521 s nxNome55r;
#X obj -123 566 s nxNome56r;
#X obj -50 566 s nxNome57r;
#X obj 23 566 s nxNome58r;
#X obj 96 566 s nxNome59r;
#X obj 169 566 s nxNome60r;
#X obj 242 566 s nxNome61r;
#X obj 315 566 s nxNome62r;
#X obj 388 566 s nxNome63r;
#X obj -123 346 s nxNome16r;
#X obj -50 346 s nxNome17r;
#X obj 23 346 s nxNome18r;
#X obj 96 346 s nxNome19r;
#X obj 169 346 s nxNome20r;
#X obj 242 346 s nxNome21r;
#X obj 315 346 s nxNome22r;
#X obj 388 346 s nxNome23r;
#X obj -123 391 s nxNome24r;
#X obj -50 391 s nxNome25r;
#X obj 23 391 s nxNome26r;
#X obj 96 391 s nxNome27r;
#X obj 169 391 s nxNome28r;
#X obj 242 391 s nxNome29r;
#X obj 492 5 tgl 15 0 empty empty empty 17 7 0 10 -262144 -1 -1 0 1
;
#X obj 492 160 tgl 15 0 empty empty empty 17 7 0 10 -262144 -1 -1 0
1;
#X obj -3 11 bng 15 250 50 0 empty empty empty 17 7 0 10 -262144 -1
-1;
#N canvas 576 193 571 478 offAll01 0;
#X obj 15 -29 inlet;
#X msg 17 93 0;
#X obj 17 118 s nxNome08r;
#X msg 83 93 0;
#X msg 150 93 0;
#X msg 216 93 0;
#X msg 282 93 0;
#X msg 348 93 0;
#X msg 415 93 0;
#X msg 481 93 0;
#X obj 83 118 s nxNome09r;
#X obj 150 118 s nxNome10r;
#X obj 216 118 s nxNome11r;
#X obj 282 118 s nxNome12r;
#X obj 348 118 s nxNome13r;
#X obj 415 118 s nxNome14r;
#X obj 481 118 s nxNome15r;
#X msg 82 45 0;
#X msg 149 45 0;
#X msg 215 45 0;
#X msg 281 45 0;
#X msg 347 45 0;
#X msg 414 45 0;
#X msg 480 45 0;
#X obj 82 70 s nxNome01r;
#X obj 149 70 s nxNome02r;
#X obj 215 70 s nxNome03r;
#X obj 281 70 s nxNome04r;
#X obj 347 70 s nxNome05r;
#X obj 414 70 s nxNome06r;
#X obj 480 70 s nxNome07r;
#X msg 18 142 0;
#X msg 84 142 0;
#X msg 151 142 0;
#X msg 217 142 0;
#X msg 283 142 0;
#X msg 349 142 0;
#X msg 416 142 0;
#X msg 482 142 0;
#X msg 19 190 0;
#X msg 85 190 0;
#X msg 152 190 0;
#X msg 218 190 0;
#X msg 284 190 0;
#X msg 350 190 0;
#X msg 417 190 0;
#X msg 483 190 0;
#X msg 19 237 0;
#X msg 85 237 0;
#X msg 152 237 0;
#X msg 218 237 0;
#X msg 284 237 0;
#X msg 350 237 0;
#X msg 417 237 0;
#X msg 483 237 0;
#X msg 20 285 0;
#X msg 86 285 0;
#X msg 153 285 0;
#X msg 219 285 0;
#X msg 285 285 0;
#X msg 351 285 0;
#X msg 418 285 0;
#X msg 484 285 0;
#X obj 84 167 s nxNome17r;
#X obj 151 167 s nxNome18r;
#X obj 217 167 s nxNome19r;
#X obj 283 167 s nxNome20r;
#X obj 349 167 s nxNome21r;
#X obj 416 167 s nxNome22r;
#X obj 482 167 s nxNome23r;
#X obj 19 215 s nxNome24r;
#X obj 85 215 s nxNome25r;
#X obj 152 215 s nxNome26r;
#X obj 218 215 s nxNome27r;
#X obj 284 215 s nxNome28r;
#X obj 350 215 s nxNome29r;
#X obj 417 215 s nxNome30r;
#X obj 483 215 s nxNome31r;
#X obj 19 262 s nxNome32r;
#X obj 85 262 s nxNome33r;
#X obj 152 262 s nxNome34r;
#X obj 218 262 s nxNome35r;
#X obj 284 262 s nxNome36r;
#X obj 350 262 s nxNome37r;
#X obj 417 262 s nxNome38r;
#X obj 483 262 s nxNome39r;
#X obj 20 310 s nxNome40r;
#X obj 86 310 s nxNome41r;
#X obj 153 310 s nxNome42r;
#X obj 219 310 s nxNome43r;
#X obj 285 310 s nxNome44r;
#X obj 351 310 s nxNome45r;
#X obj 418 310 s nxNome46r;
#X obj 484 310 s nxNome47r;
#X msg 20 333 0;
#X msg 86 333 0;
#X msg 153 333 0;
#X msg 219 333 0;
#X msg 285 333 0;
#X msg 351 333 0;
#X msg 418 333 0;
#X msg 484 333 0;
#X obj 20 358 s nxNome60r;
#X obj 86 358 s nxNome48r;
#X obj 153 358 s nxNome49r;
#X obj 219 358 s nxNome50r;
#X obj 285 358 s nxNome51r;
#X obj 351 358 s nxNome52r;
#X obj 418 358 s nxNome53r;
#X obj 484 358 s nxNome54r;
#X msg 20 381 0;
#X msg 86 381 0;
#X msg 153 381 0;
#X msg 219 381 0;
#X msg 285 381 0;
#X msg 351 381 0;
#X msg 418 381 0;
#X msg 484 381 0;
#X obj 20 406 s nxNome55r;
#X obj 86 406 s nxNome56r;
#X obj 153 406 s nxNome57r;
#X obj 219 406 s nxNome58r;
#X obj 285 406 s nxNome59r;
#X obj 351 406 s nxNome61r;
#X obj 418 406 s nxNome62r;
#X obj 484 406 s nxNome63r;
#X obj 18 167 s nxNome16r;
#X connect 0 0 1 0;
#X connect 0 0 17 0;
#X connect 0 0 18 0;
#X connect 0 0 19 0;
#X connect 0 0 20 0;
#X connect 0 0 21 0;
#X connect 0 0 22 0;
#X connect 0 0 23 0;
#X connect 0 0 3 0;
#X connect 0 0 4 0;
#X connect 0 0 5 0;
#X connect 0 0 6 0;
#X connect 0 0 7 0;
#X connect 0 0 8 0;
#X connect 0 0 9 0;
#X connect 0 0 31 0;
#X connect 0 0 32 0;
#X connect 0 0 33 0;
#X connect 0 0 34 0;
#X connect 0 0 35 0;
#X connect 0 0 36 0;
#X connect 0 0 37 0;
#X connect 0 0 38 0;
#X connect 0 0 39 0;
#X connect 0 0 47 0;
#X connect 0 0 55 0;
#X connect 0 0 94 0;
#X connect 0 0 110 0;
#X connect 0 0 40 0;
#X connect 0 0 48 0;
#X connect 0 0 56 0;
#X connect 0 0 95 0;
#X connect 0 0 111 0;
#X connect 0 0 41 0;
#X connect 0 0 49 0;
#X connect 0 0 57 0;
#X connect 0 0 96 0;
#X connect 0 0 112 0;
#X connect 0 0 42 0;
#X connect 0 0 50 0;
#X connect 0 0 58 0;
#X connect 0 0 97 0;
#X connect 0 0 113 0;
#X connect 0 0 43 0;
#X connect 0 0 51 0;
#X connect 0 0 59 0;
#X connect 0 0 98 0;
#X connect 0 0 114 0;
#X connect 0 0 44 0;
#X connect 0 0 45 0;
#X connect 0 0 46 0;
#X connect 0 0 52 0;
#X connect 0 0 60 0;
#X connect 0 0 99 0;
#X connect 0 0 115 0;
#X connect 0 0 53 0;
#X connect 0 0 61 0;
#X connect 0 0 100 0;
#X connect 0 0 116 0;
#X connect 0 0 54 0;
#X connect 0 0 62 0;
#X connect 0 0 101 0;
#X connect 0 0 117 0;
#X connect 1 0 2 0;
#X connect 3 0 10 0;
#X connect 4 0 11 0;
#X connect 5 0 12 0;
#X connect 6 0 13 0;
#X connect 7 0 14 0;
#X connect 8 0 15 0;
#X connect 9 0 16 0;
#X connect 17 0 24 0;
#X connect 18 0 25 0;
#X connect 19 0 26 0;
#X connect 20 0 27 0;
#X connect 21 0 28 0;
#X connect 22 0 29 0;
#X connect 23 0 30 0;
#X connect 31 0 126 0;
#X connect 32 0 63 0;
#X connect 33 0 64 0;
#X connect 34 0 65 0;
#X connect 35 0 66 0;
#X connect 36 0 67 0;
#X connect 37 0 68 0;
#X connect 38 0 69 0;
#X connect 39 0 70 0;
#X connect 40 0 71 0;
#X connect 41 0 72 0;
#X connect 42 0 73 0;
#X connect 43 0 74 0;
#X connect 44 0 75 0;
#X connect 45 0 76 0;
#X connect 46 0 77 0;
#X connect 47 0 78 0;
#X connect 48 0 79 0;
#X connect 49 0 80 0;
#X connect 50 0 81 0;
#X connect 51 0 82 0;
#X connect 52 0 83 0;
#X connect 53 0 84 0;
#X connect 54 0 85 0;
#X connect 55 0 86 0;
#X connect 56 0 87 0;
#X connect 57 0 88 0;
#X connect 58 0 89 0;
#X connect 59 0 90 0;
#X connect 60 0 91 0;
#X connect 61 0 92 0;
#X connect 62 0 93 0;
#X connect 94 0 102 0;
#X connect 95 0 103 0;
#X connect 96 0 104 0;
#X connect 97 0 105 0;
#X connect 98 0 106 0;
#X connect 99 0 107 0;
#X connect 100 0 108 0;
#X connect 101 0 109 0;
#X connect 110 0 118 0;
#X connect 111 0 119 0;
#X connect 112 0 120 0;
#X connect 113 0 121 0;
#X connect 114 0 122 0;
#X connect 115 0 123 0;
#X connect 116 0 124 0;
#X connect 117 0 125 0;
#X restore -3 38 pd offAll01;
#X text 497 36 Column 01: Speed 0-100.;
#X text 497 50 Column 02: Speed 100-300.;
#X text 497 65 Column 03: Speed 300-1000.;
#X text 497 79 Column 04: Speed 1000-5000.;
#N canvas 563 511 450 300 nxNome01Speed 0;
#X obj 18 44 select 1;
#X obj 18 73 bng 15 250 50 0 empty empty empty 17 7 0 10 -262144 -1
-1;
#X obj 18 163 nxRandom;
#X msg 40 136 0;
#X msg 71 136 100;
#X obj 18 208 outlet;
#X obj 18 14 r nxNome08s;
#X msg 20 241 0;
#X obj 20 268 s nxNome08r;
#X msg 93 241 0;
#X obj 93 268 s nxNome09r;
#X msg 166 241 0;
#X obj 166 268 s nxNome10r;
#X msg 238 241 0;
#X obj 238 268 s nxNome11r;
#X obj 97 44 select 1;
#X obj 97 73 bng 15 250 50 0 empty empty empty 17 7 0 10 -262144 -1
-1;
#X obj 97 163 nxRandom;
#X obj 179 44 select 1;
#X obj 179 73 bng 15 250 50 0 empty empty empty 17 7 0 10 -262144 -1
-1;
#X obj 179 163 nxRandom;
#X obj 258 44 select 1;
#X obj 258 73 bng 15 250 50 0 empty empty empty 17 7 0 10 -262144 -1
-1;
#X obj 258 163 nxRandom;
#X msg 119 136 100;
#X msg 150 136 300;
#X msg 201 136 300;
#X msg 232 136 1000;
#X msg 280 136 1000;
#X msg 311 136 5000;
#X obj 97 14 r nxNome09s;
#X obj 179 14 r nxNome10s;
#X obj 258 14 r nxNome11s;
#X connect 0 0 1 0;
#X connect 1 0 3 0;
#X connect 1 0 4 0;
#X connect 1 0 2 0;
#X connect 1 0 9 0;
#X connect 1 0 11 0;
#X connect 1 0 13 0;
#X connect 2 0 5 0;
#X connect 3 0 2 1;
#X connect 4 0 2 2;
#X connect 6 0 0 0;
#X connect 7 0 8 0;
#X connect 9 0 10 0;
#X connect 11 0 12 0;
#X connect 13 0 14 0;
#X connect 15 0 16 0;
#X connect 16 0 24 0;
#X connect 16 0 25 0;
#X connect 16 0 17 0;
#X connect 16 0 7 0;
#X connect 16 0 11 0;
#X connect 16 0 13 0;
#X connect 17 0 5 0;
#X connect 18 0 19 0;
#X connect 19 0 26 0;
#X connect 19 0 27 0;
#X connect 19 0 20 0;
#X connect 19 0 7 0;
#X connect 19 0 9 0;
#X connect 19 0 13 0;
#X connect 20 0 5 0;
#X connect 21 0 22 0;
#X connect 22 0 28 0;
#X connect 22 0 29 0;
#X connect 22 0 23 0;
#X connect 22 0 7 0;
#X connect 22 0 9 0;
#X connect 22 0 11 0;
#X connect 23 0 5 0;
#X connect 24 0 17 1;
#X connect 25 0 17 2;
#X connect 26 0 20 1;
#X connect 27 0 20 2;
#X connect 28 0 23 1;
#X connect 29 0 23 2;
#X connect 30 0 15 0;
#X connect 31 0 18 0;
#X connect 32 0 21 0;
#X restore -15 -22 pd nxNome01Speed;
#X text 498 20 PARAMETERS / ROW 2;
#N canvas 1 540 450 300 nxNome01factor 0;
#X obj 28 54 select 1;
#X obj 28 83 bng 15 250 50 0 empty empty empty 17 7 0 10 -262144 -1
-1;
#X obj 28 173 nxRandom;
#X obj 28 218 outlet;
#X msg 30 251 0;
#X msg 103 251 0;
#X msg 176 251 0;
#X msg 248 251 0;
#X obj 107 54 select 1;
#X obj 107 83 bng 15 250 50 0 empty empty empty 17 7 0 10 -262144 -1
-1;
#X obj 107 173 nxRandom;
#X obj 189 54 select 1;
#X obj 189 83 bng 15 250 50 0 empty empty empty 17 7 0 10 -262144 -1
-1;
#X obj 189 173 nxRandom;
#X obj 268 54 select 1;
#X obj 268 83 bng 15 250 50 0 empty empty empty 17 7 0 10 -262144 -1
-1;
#X obj 268 173 nxRandom;
#X obj 28 24 r nxNome12s;
#X obj 107 24 r nxNome13s;
#X obj 189 24 r nxNome14s;
#X obj 268 24 r nxNome15s;
#X obj 30 278 s nxNome12r;
#X obj 103 278 s nxNome13r;
#X obj 176 278 s nxNome14r;
#X obj 248 278 s nxNome15r;
#X msg 50 146 0.1;
#X msg 129 146 0.3;
#X msg 160 146 0.5;
#X msg 242 146 0.8;
#X msg 290 146 0.8;
#X msg 321 146 1;
#X msg 211 146 0.5;
#X msg 82 147 0.3;
#X connect 0 0 1 0;
#X connect 1 0 25 0;
#X connect 1 0 32 0;
#X connect 1 0 2 0;
#X connect 1 0 5 0;
#X connect 1 0 6 0;
#X connect 1 0 7 0;
#X connect 2 0 3 0;
#X connect 4 0 21 0;
#X connect 5 0 22 0;
#X connect 6 0 23 0;
#X connect 7 0 24 0;
#X connect 8 0 9 0;
#X connect 9 0 26 0;
#X connect 9 0 27 0;
#X connect 9 0 10 0;
#X connect 9 0 4 0;
#X connect 9 0 6 0;
#X connect 9 0 7 0;
#X connect 10 0 3 0;
#X connect 11 0 12 0;
#X connect 12 0 31 0;
#X connect 12 0 28 0;
#X connect 12 0 13 0;
#X connect 12 0 4 0;
#X connect 12 0 5 0;
#X connect 12 0 7 0;
#X connect 13 0 3 0;
#X connect 14 0 15 0;
#X connect 15 0 29 0;
#X connect 15 0 30 0;
#X connect 15 0 16 0;
#X connect 15 0 4 0;
#X connect 15 0 5 0;
#X connect 15 0 6 0;
#X connect 16 0 3 0;
#X connect 17 0 0 0;
#X connect 18 0 8 0;
#X connect 19 0 11 0;
#X connect 20 0 14 0;
#X connect 25 0 2 1;
#X connect 26 0 10 1;
#X connect 27 0 10 2;
#X connect 28 0 13 2;
#X connect 29 0 16 1;
#X connect 30 0 16 2;
#X connect 31 0 13 1;
#X connect 32 0 2 2;
#X restore 139 94 pd nxNome01factor;
#X text 497 95 Column 05: Factor 0.1-0.3.;
#X text 497 124 Column 07: Factor 0.5-0.8.;
#X text 497 109 Column 06: Factor 0.3-0.5.;
#X text 497 138 Column 08: Factor 0.8-1.0.;
#X connect 1 0 8 3;
#X connect 2 0 5 0;
#X connect 3 0 2 0;
#X connect 4 0 10 0;
#X connect 5 0 8 0;
#X connect 6 0 2 1;
#X connect 7 0 3 0;
#X connect 7 0 108 0;
#X connect 8 0 4 0;
#X connect 9 0 92 0;
#X connect 10 0 9 0;
#X connect 10 1 11 0;
#X connect 10 2 12 0;
#X connect 10 3 13 0;
#X connect 10 4 14 0;
#X connect 10 5 15 0;
#X connect 10 6 16 0;
#X connect 10 7 17 0;
#X connect 10 8 18 0;
#X connect 10 9 19 0;
#X connect 10 10 20 0;
#X connect 10 11 21 0;
#X connect 10 12 22 0;
#X connect 10 13 23 0;
#X connect 10 14 24 0;
#X connect 10 15 25 0;
#X connect 10 16 26 0;
#X connect 10 17 27 0;
#X connect 10 18 28 0;
#X connect 10 19 29 0;
#X connect 10 20 30 0;
#X connect 10 21 31 0;
#X connect 10 22 32 0;
#X connect 10 23 33 0;
#X connect 10 24 34 0;
#X connect 10 25 35 0;
#X connect 10 26 36 0;
#X connect 10 27 37 0;
#X connect 10 28 38 0;
#X connect 10 29 39 0;
#X connect 10 30 40 0;
#X connect 10 31 41 0;
#X connect 10 32 42 0;
#X connect 10 33 43 0;
#X connect 10 34 44 0;
#X connect 10 35 45 0;
#X connect 10 36 46 0;
#X connect 10 37 47 0;
#X connect 10 38 48 0;
#X connect 10 39 49 0;
#X connect 10 40 50 0;
#X connect 10 41 51 0;
#X connect 10 42 52 0;
#X connect 10 43 53 0;
#X connect 10 44 54 0;
#X connect 10 45 55 0;
#X connect 10 46 56 0;
#X connect 10 47 57 0;
#X connect 11 0 93 0;
#X connect 12 0 94 0;
#X connect 13 0 95 0;
#X connect 14 0 96 0;
#X connect 15 0 97 0;
#X connect 16 0 98 0;
#X connect 17 0 99 0;
#X connect 18 0 100 0;
#X connect 19 0 101 0;
#X connect 20 0 102 0;
#X connect 21 0 103 0;
#X connect 22 0 104 0;
#X connect 23 0 105 0;
#X connect 24 0 58 0;
#X connect 25 0 59 0;
#X connect 26 0 60 0;
#X connect 27 0 61 0;
#X connect 28 0 62 0;
#X connect 29 0 63 0;
#X connect 30 0 64 0;
#X connect 31 0 65 0;
#X connect 32 0 66 0;
#X connect 33 0 67 0;
#X connect 34 0 68 0;
#X connect 35 0 69 0;
#X connect 36 0 70 0;
#X connect 37 0 71 0;
#X connect 38 0 72 0;
#X connect 39 0 73 0;
#X connect 40 0 74 0;
#X connect 41 0 75 0;
#X connect 42 0 76 0;
#X connect 43 0 77 0;
#X connect 44 0 78 0;
#X connect 45 0 79 0;
#X connect 46 0 80 0;
#X connect 47 0 81 0;
#X connect 48 0 82 0;
#X connect 49 0 83 0;
#X connect 50 0 84 0;
#X connect 51 0 85 0;
#X connect 52 0 86 0;
#X connect 53 0 87 0;
#X connect 54 0 88 0;
#X connect 55 0 89 0;
#X connect 56 0 90 0;
#X connect 57 0 91 0;
#X connect 106 0 107 0;
#X connect 108 0 109 0;
#X connect 114 0 6 0;
#X connect 116 0 1 0;
#X restore -216 37 pd nxNome01;
#X text -64 26 INSTRUCTIONS.;
#X obj -69 11 tgl 15 0 empty empty empty 17 7 0 10 -262144 -1 -1 0
1;
#X obj -69 83 tgl 15 0 empty empty empty 17 7 0 10 -262144 -1 -1 0
1;
#X text -63 43 First row: Select Control.;
#X text -63 57 Second row: Control Parameters.;
#X connect 3 0 4 0;
#X restore 235 336 pd nxNomeControl;
