#N canvas 1 110 296 265 10;
#X obj 82 166 nxOutlet~;
#X obj 49 83 osc~ 300;
#X floatatom 107 61 5 0 100 1 Vol_(1-100) - -;
#X obj 120 103 bng 15 250 50 0 empty empty Rec_Start 17 7 0 10 -262144
-1 -1;
#X obj 133 133 bng 15 250 50 0 empty empty Rec_Stop 17 7 0 10 -262144
-1 -1;
#X text 13 12 nxOutlet~ | Audio out and recorder.;
#X text 96 218 Miquel Parera / October 2013;
#X connect 1 0 0 0;
#X connect 1 0 0 1;
#X connect 2 0 0 2;
#X connect 3 0 0 3;
#X connect 4 0 0 4;
