#N canvas 422 162 933 598 10;
#X obj 32 438 dac~;
#X obj 32 346 qompander~;
#X obj 46 277 loadbang;
#X obj 31 240 *~;
#X floatatom 81 224 5 0 0 0 - - -;
#X msg 46 315 0.8;
#X msg 77 315 -96;
#X msg 106 315 7.39;
#X msg 141 315 20;
#X obj 168 346 qompander~;
#X obj 182 277 loadbang;
#X msg 182 315 0.8;
#X msg 213 315 -96;
#X msg 242 315 7.39;
#X msg 277 315 20;
#X obj 169 241 *~;
#X floatatom 219 225 5 0 0 0 - - -;
#X floatatom 219 145 5 0 0 0 - - -;
#X obj 219 113 / 100;
#X floatatom 219 86 5 0 100 0 - - -;
#X obj 227 542 writesf~ 2;
#X msg 344 496 start;
#X msg 344 525 stop;
#X msg 534 244 set;
#X obj 589 149 date;
#X floatatom 589 203 5 0 0 0 - - -;
#X floatatom 628 203 5 0 0 0 - - -;
#X floatatom 666 203 5 0 0 0 - - -;
#X obj 771 139 time;
#X floatatom 771 196 5 0 0 0 - - -;
#X floatatom 810 196 5 0 0 0 - - -;
#X floatatom 848 196 5 0 0 0 - - -;
#X msg 534 310 open nx2013-9-7_5:26:48.wav;
#X obj 589 239 pack 0 0 0 0 0 0;
#X obj 512 438 spigot;
#X floatatom 545 413 5 0 0 0 - - -;
#X msg 545 387 0;
#X msg 579 386 1;
#X obj 30 28 inlet~;
#X obj 86 28 inlet~;
#X obj 141 28 inlet;
#X obj 447 20 inlet;
#X obj 574 24 inlet;
#X text 727 560 Miquel Parera / September 2013;
#X obj 447 57 bng 15 250 50 0 empty empty empty 17 7 0 10 -262144 -1
-1;
#X obj 447 122 delay 33;
#X obj 397 177 delay 33;
#X obj 397 218 delay 33;
#X obj 397 284 delay 33;
#X obj 397 313 bng 15 250 50 0 empty empty empty 17 7 0 10 -262144
-1 -1;
#X obj 344 350 delay 33;
#X obj 344 379 bng 15 250 50 0 empty empty empty 17 7 0 10 -262144
-1 -1;
#X msg 589 267 add2 open nxPD\$1-\$2-\$3_\$4:\$5:\$6.wav;
#X connect 1 0 0 0;
#X connect 1 0 20 0;
#X connect 2 0 5 0;
#X connect 2 0 6 0;
#X connect 2 0 7 0;
#X connect 2 0 8 0;
#X connect 3 0 1 0;
#X connect 4 0 3 1;
#X connect 5 0 1 1;
#X connect 6 0 1 2;
#X connect 7 0 1 3;
#X connect 8 0 1 4;
#X connect 9 0 0 1;
#X connect 9 0 20 1;
#X connect 10 0 11 0;
#X connect 10 0 12 0;
#X connect 10 0 13 0;
#X connect 10 0 14 0;
#X connect 11 0 9 1;
#X connect 12 0 9 2;
#X connect 13 0 9 3;
#X connect 14 0 9 4;
#X connect 15 0 9 0;
#X connect 16 0 15 1;
#X connect 17 0 16 0;
#X connect 17 0 4 0;
#X connect 18 0 17 0;
#X connect 19 0 18 0;
#X connect 21 0 20 0;
#X connect 22 0 20 0;
#X connect 23 0 32 0;
#X connect 24 0 25 0;
#X connect 24 1 26 0;
#X connect 24 2 27 0;
#X connect 25 0 33 0;
#X connect 26 0 33 1;
#X connect 27 0 33 2;
#X connect 28 0 29 0;
#X connect 28 1 30 0;
#X connect 28 2 31 0;
#X connect 29 0 33 3;
#X connect 30 0 33 4;
#X connect 31 0 33 5;
#X connect 32 0 34 0;
#X connect 32 0 20 0;
#X connect 33 0 52 0;
#X connect 34 0 20 0;
#X connect 35 0 34 1;
#X connect 36 0 35 0;
#X connect 37 0 35 0;
#X connect 38 0 3 0;
#X connect 39 0 15 0;
#X connect 40 0 19 0;
#X connect 41 0 44 0;
#X connect 42 0 22 0;
#X connect 44 0 24 0;
#X connect 44 0 28 0;
#X connect 44 0 45 0;
#X connect 44 0 36 0;
#X connect 45 0 23 0;
#X connect 45 0 36 0;
#X connect 45 0 46 0;
#X connect 46 0 24 0;
#X connect 46 0 28 0;
#X connect 46 0 47 0;
#X connect 47 0 37 0;
#X connect 47 0 48 0;
#X connect 48 0 49 0;
#X connect 49 0 32 0;
#X connect 49 0 50 0;
#X connect 50 0 51 0;
#X connect 51 0 21 0;
#X connect 52 0 32 0;
