#N canvas 1 82 595 735 10;
#X obj 172 446 nxSequencerX4;
#X msg 172 282 bang;
#X msg 178 310 stop;
#X floatatom 239 182 5 0 0 1 RandomMinTime_(msec) RandomMinTime -;
#X floatatom 247 207 5 0 0 1 RandomMaxTime_(msec) RandomMaxTime -;
#X msg 77 102 \; RandomMinTime 100 \; RandomMaxTime 1000 \; RandomSeq1Min
10 \; RandomSeq1Max 100 \; RandomSeq2Min 10 \; RandomSeq2Max 100 \;
RandomSeq3Min 10 \; RandomSeq3Max 100 \; RandomSeq4Min 10 \; RandomSeq4Max
100 \;;
#X obj 77 71 loadbang;
#X floatatom 172 660 5 0 0 1 Out - -;
#X floatatom 187 582 5 0 0 1 Time - -;
#X floatatom 202 558 5 0 0 1 Seq1 - -;
#X floatatom 217 534 5 0 0 1 Seq2 - -;
#X floatatom 232 508 5 0 0 1 Seq3 - -;
#X floatatom 247 484 5 0 0 1 Seq4 - -;
#X floatatom 256 231 5 0 0 1 RandomSeq1Min RandomSeq1Min -;
#X floatatom 264 254 5 0 0 1 RandomSeq1Max RandomSeq1Max -;
#X floatatom 280 278 5 0 0 1 RandomSeq2Min RandomSeq2Min -;
#X floatatom 288 301 5 0 0 1 RandomSeq2Max RandomSeq2Max -;
#X floatatom 298 325 5 0 0 1 RandomSeq3Min RandomSeq3Min -;
#X floatatom 306 348 5 0 0 1 RandomSeq3Max RandomSeq3Max -;
#X floatatom 322 372 5 0 0 1 RandomSeq4Min RandomSeq4Min -;
#X floatatom 330 395 5 0 0 1 RandomSeq4Max RandomSeq4Max -;
#X text 75 48 1 Put the Variables.;
#X text 56 280 2 Bang the Seq ->;
#X text 17 15 nxSequencerX4 | Semideterministic Sequencer (4 Steps)
;
#X text 371 698 Miquel Parera / September 2013;
#X connect 0 0 7 0;
#X connect 0 1 8 0;
#X connect 0 2 9 0;
#X connect 0 3 10 0;
#X connect 0 4 11 0;
#X connect 0 5 12 0;
#X connect 1 0 0 0;
#X connect 2 0 0 1;
#X connect 3 0 0 2;
#X connect 4 0 0 3;
#X connect 6 0 5 0;
#X connect 13 0 0 4;
#X connect 14 0 0 5;
#X connect 15 0 0 6;
#X connect 16 0 0 7;
#X connect 17 0 0 8;
#X connect 18 0 0 9;
#X connect 19 0 0 10;
#X connect 20 0 0 11;
