#N canvas 149 111 1087 767 10;
#X obj 292 322 nxRandom;
#X obj 292 275 delay 5;
#X obj 464 320 nxRandom;
#X obj 464 273 delay 5;
#X obj 660 319 nxRandom;
#X obj 660 272 delay 5;
#X obj 859 317 nxRandom;
#X obj 859 270 delay 5;
#X floatatom 113 327 5 0 0 0 - - -;
#X obj 113 295 nxRandom;
#X msg 56 69 bang;
#X obj 113 224 delay 5;
#X obj 86 356 metro;
#X obj 86 388 counter 3;
#X obj 86 442 select 0 1 2 3;
#X floatatom 86 415 5 0 0 0 - - -;
#X obj 86 468 bng 15 250 50 0 empty empty empty 17 7 0 10 -262144 -1
-1;
#X obj 106 468 bng 15 250 50 0 empty empty empty 17 7 0 10 -262144
-1 -1;
#X obj 126 468 bng 15 250 50 0 empty empty empty 17 7 0 10 -262144
-1 -1;
#X obj 146 468 bng 15 250 50 0 empty empty empty 17 7 0 10 -262144
-1 -1;
#X obj 56 245 delay 10;
#X msg 35 339 stop;
#X floatatom 265 659 5 0 0 0 - - -;
#X obj 265 595 float;
#X obj 437 593 float;
#X obj 633 591 float;
#X obj 832 589 float;
#X obj 265 701 outlet;
#X floatatom 198 222 5 0 0 0 - - -;
#X floatatom 237 222 5 0 0 0 - - -;
#X obj 171 254 float;
#X obj 210 254 float;
#X msg 171 193 bang;
#X floatatom 371 242 5 0 0 0 - - -;
#X floatatom 410 242 5 0 0 0 - - -;
#X obj 344 274 float;
#X obj 383 274 float;
#X msg 344 213 bang;
#X floatatom 543 241 5 0 0 0 - - -;
#X floatatom 582 241 5 0 0 0 - - -;
#X obj 516 273 float;
#X obj 555 273 float;
#X msg 516 212 bang;
#X floatatom 740 240 5 0 0 0 - - -;
#X floatatom 779 240 5 0 0 0 - - -;
#X obj 713 272 float;
#X obj 752 272 float;
#X msg 713 211 bang;
#X floatatom 939 238 5 0 0 0 - - -;
#X floatatom 978 238 5 0 0 0 - - -;
#X obj 912 270 float;
#X obj 951 270 float;
#X msg 912 209 bang;
#X obj 56 25 inlet;
#X obj 96 25 inlet;
#X obj 198 26 inlet;
#X obj 237 26 inlet;
#X obj 371 27 inlet;
#X obj 410 27 inlet;
#X obj 543 32 inlet;
#X obj 582 32 inlet;
#X obj 740 28 inlet;
#X obj 779 28 inlet;
#X obj 939 30 inlet;
#X obj 978 30 inlet;
#X obj 388 700 outlet;
#X obj 438 700 outlet;
#X obj 486 700 outlet;
#X obj 536 700 outlet;
#X obj 581 700 outlet;
#X text 875 736 Miquel Parera / September 2013;
#X connect 0 0 23 1;
#X connect 0 0 66 0;
#X connect 1 0 0 0;
#X connect 2 0 24 1;
#X connect 2 0 67 0;
#X connect 3 0 2 0;
#X connect 4 0 25 1;
#X connect 4 0 68 0;
#X connect 5 0 4 0;
#X connect 6 0 26 1;
#X connect 6 0 69 0;
#X connect 7 0 6 0;
#X connect 8 0 12 1;
#X connect 8 0 65 0;
#X connect 9 0 8 0;
#X connect 10 0 11 0;
#X connect 10 0 20 0;
#X connect 10 0 32 0;
#X connect 10 0 37 0;
#X connect 10 0 42 0;
#X connect 10 0 47 0;
#X connect 10 0 52 0;
#X connect 11 0 9 0;
#X connect 12 0 13 0;
#X connect 13 0 15 0;
#X connect 14 0 16 0;
#X connect 14 1 17 0;
#X connect 14 2 18 0;
#X connect 14 3 19 0;
#X connect 15 0 14 0;
#X connect 16 0 23 0;
#X connect 17 0 24 0;
#X connect 18 0 25 0;
#X connect 19 0 26 0;
#X connect 20 0 12 0;
#X connect 21 0 12 0;
#X connect 22 0 27 0;
#X connect 23 0 22 0;
#X connect 24 0 22 0;
#X connect 25 0 22 0;
#X connect 26 0 22 0;
#X connect 28 0 30 1;
#X connect 29 0 31 1;
#X connect 30 0 9 1;
#X connect 31 0 9 2;
#X connect 32 0 30 0;
#X connect 32 0 31 0;
#X connect 32 0 11 0;
#X connect 33 0 35 1;
#X connect 34 0 36 1;
#X connect 35 0 0 1;
#X connect 36 0 0 2;
#X connect 37 0 35 0;
#X connect 37 0 36 0;
#X connect 37 0 1 0;
#X connect 38 0 40 1;
#X connect 39 0 41 1;
#X connect 40 0 2 1;
#X connect 41 0 2 2;
#X connect 42 0 40 0;
#X connect 42 0 41 0;
#X connect 42 0 3 0;
#X connect 43 0 45 1;
#X connect 44 0 46 1;
#X connect 45 0 4 1;
#X connect 46 0 4 2;
#X connect 47 0 45 0;
#X connect 47 0 46 0;
#X connect 47 0 5 0;
#X connect 48 0 50 1;
#X connect 49 0 51 1;
#X connect 50 0 6 1;
#X connect 51 0 6 2;
#X connect 52 0 50 0;
#X connect 52 0 51 0;
#X connect 52 0 7 0;
#X connect 53 0 10 0;
#X connect 54 0 21 0;
#X connect 55 0 28 0;
#X connect 56 0 29 0;
#X connect 57 0 33 0;
#X connect 58 0 34 0;
#X connect 59 0 38 0;
#X connect 60 0 39 0;
#X connect 61 0 43 0;
#X connect 62 0 44 0;
#X connect 63 0 48 0;
#X connect 64 0 49 0;
