#N canvas 1 82 818 573 10;
#X obj 252 182 nxRandom;
#X msg 334 134 100;
#X msg 252 82 bang;
#X obj 252 135 delay 5;
#X msg 306 134 10;
#X obj 365 180 nxRandom;
#X msg 447 132 100;
#X msg 365 80 bang;
#X obj 365 133 delay 5;
#X msg 419 132 10;
#X obj 478 179 nxRandom;
#X msg 560 131 100;
#X msg 478 79 bang;
#X obj 478 132 delay 5;
#X msg 532 131 10;
#X obj 591 177 nxRandom;
#X msg 677 129 100;
#X msg 591 77 bang;
#X obj 591 130 delay 5;
#X msg 645 129 10;
#X floatatom 124 163 5 0 0 0 - - -;
#X obj 124 131 nxRandom;
#X msg 210 83 100;
#X msg 124 31 bang;
#X obj 124 84 delay 5;
#X msg 178 83 10;
#X obj 97 216 metro;
#X obj 97 248 counter 3;
#X obj 97 302 select 0 1 2 3;
#X floatatom 97 275 5 0 0 0 - - -;
#X obj 97 328 bng 15 250 50 0 empty empty empty 17 7 0 10 -262144 -1
-1;
#X obj 117 328 bng 15 250 50 0 empty empty empty 17 7 0 10 -262144
-1 -1;
#X obj 137 328 bng 15 250 50 0 empty empty empty 17 7 0 10 -262144
-1 -1;
#X obj 157 328 bng 15 250 50 0 empty empty empty 17 7 0 10 -262144
-1 -1;
#X obj 67 105 delay 10;
#X msg 46 199 stop;
#X floatatom 225 481 5 0 0 0 - - -;
#X obj 225 417 float;
#X obj 338 415 float;
#X obj 451 413 float;
#X obj 564 411 float;
#X connect 0 0 37 1;
#X connect 1 0 0 2;
#X connect 2 0 4 0;
#X connect 2 0 1 0;
#X connect 2 0 3 0;
#X connect 3 0 0 0;
#X connect 4 0 0 1;
#X connect 5 0 38 1;
#X connect 6 0 5 2;
#X connect 7 0 9 0;
#X connect 7 0 6 0;
#X connect 7 0 8 0;
#X connect 8 0 5 0;
#X connect 9 0 5 1;
#X connect 10 0 39 1;
#X connect 11 0 10 2;
#X connect 12 0 14 0;
#X connect 12 0 11 0;
#X connect 12 0 13 0;
#X connect 13 0 10 0;
#X connect 14 0 10 1;
#X connect 15 0 40 1;
#X connect 16 0 15 2;
#X connect 17 0 19 0;
#X connect 17 0 16 0;
#X connect 17 0 18 0;
#X connect 18 0 15 0;
#X connect 19 0 15 1;
#X connect 20 0 26 1;
#X connect 21 0 20 0;
#X connect 22 0 21 2;
#X connect 23 0 25 0;
#X connect 23 0 22 0;
#X connect 23 0 24 0;
#X connect 23 0 34 0;
#X connect 23 0 2 0;
#X connect 23 0 7 0;
#X connect 23 0 12 0;
#X connect 23 0 17 0;
#X connect 24 0 21 0;
#X connect 25 0 21 1;
#X connect 26 0 27 0;
#X connect 27 0 29 0;
#X connect 28 0 30 0;
#X connect 28 1 31 0;
#X connect 28 2 32 0;
#X connect 28 3 33 0;
#X connect 29 0 28 0;
#X connect 30 0 37 0;
#X connect 31 0 38 0;
#X connect 32 0 39 0;
#X connect 33 0 40 0;
#X connect 34 0 26 0;
#X connect 35 0 26 0;
#X connect 37 0 36 0;
#X connect 38 0 36 0;
#X connect 39 0 36 0;
#X connect 40 0 36 0;
